<svg width="90" height="90" viewBox="0 0 90 90" fill="none" xmlns="http://www.w3.org/2000/svg">
<path d="M69.75 20.25H47.5425L36.711 31.6485L36.2115 32.1255C35.1675 33.0197 33.8754 33.574 32.508 33.714L31.815 33.75H9V65.25L9.0225 65.988C9.20987 68.8381 10.4743 71.5102 12.5593 73.4623C14.6443 75.4145 17.3938 76.5004 20.25 76.5H49.671C49.5569 75.7554 49.4997 75.0033 49.5 74.25C49.4996 71.4429 50.5487 68.7371 52.4412 66.6639C54.3338 64.5907 56.933 63.2999 59.7285 63.045C58.4886 61.6657 57.5461 60.0456 56.96 58.2859C56.3739 56.5263 56.1567 54.6647 56.3219 52.8173C56.4871 50.97 57.0312 49.1765 57.9203 47.5487C58.8093 45.921 60.0243 44.4938 61.4893 43.3564C62.9543 42.219 64.638 41.3957 66.4353 40.9377C68.2326 40.4798 70.105 40.3972 71.9356 40.695C73.7663 40.9927 75.516 41.6645 77.0755 42.6685C78.6351 43.6724 79.971 44.9869 81 46.53V31.5L80.9775 30.762L80.9055 30.033C80.5495 27.3265 79.2216 24.8417 77.1692 23.0418C75.1167 21.2419 72.4799 20.2496 69.75 20.25ZM35.694 14.445C34.6521 13.8268 33.463 13.5004 32.2515 13.5H20.25L19.512 13.5225C16.6619 13.7099 13.9898 14.9743 12.0377 17.0593C10.0855 19.1443 8.99956 21.8938 9 24.75V29.25H31.815L32.184 29.2185C32.5434 29.1597 32.8831 29.0145 33.174 28.7955L33.4485 28.548L42.2325 19.305L36.3015 14.85L35.694 14.445ZM78.75 54C78.75 56.3869 77.8018 58.6761 76.114 60.364C74.4261 62.0518 72.1369 63 69.75 63C67.3631 63 65.0739 62.0518 63.386 60.364C61.6982 58.6761 60.75 56.3869 60.75 54C60.75 51.6131 61.6982 49.3239 63.386 47.636C65.0739 45.9482 67.3631 45 69.75 45C72.1369 45 74.4261 45.9482 76.114 47.636C77.8018 49.3239 78.75 51.6131 78.75 54ZM85.5 74.25C85.5 79.8525 81 85.5 69.75 85.5C58.5 85.5 54 79.875 54 74.25C54 72.4598 54.7112 70.7429 55.977 69.477C57.2429 68.2112 58.9598 67.5 60.75 67.5H78.75C80.5402 67.5 82.2571 68.2112 83.523 69.477C84.7888 70.7429 85.5 72.4598 85.5 74.25Z" fill="black"/>
</svg>
