<svg width="90" height="90" viewBox="0 0 90 90" fill="none" xmlns="http://www.w3.org/2000/svg">
<path d="M22.5 48.75H7.5C5.25 48.75 3.75 50.25 3.75 52.5V82.5C3.75 84.75 5.25 86.25 7.5 86.25H22.5C24.75 86.25 26.25 84.75 26.25 82.5V52.5C26.25 50.25 24.75 48.75 22.5 48.75ZM82.5 33.75H67.5C65.25 33.75 63.75 35.25 63.75 37.5V82.5C63.75 84.75 65.25 86.25 67.5 86.25H82.5C84.75 86.25 86.25 84.75 86.25 82.5V37.5C86.25 35.25 84.75 33.75 82.5 33.75ZM52.5 3.75H37.5C35.25 3.75 33.75 5.25 33.75 7.5V82.5C33.75 84.75 35.25 86.25 37.5 86.25H52.5C54.75 86.25 56.25 84.75 56.25 82.5V7.5C56.25 5.25 54.75 3.75 52.5 3.75Z" fill="black"/>
</svg>
