<svg width="90" height="90" viewBox="0 0 90 90" fill="none" xmlns="http://www.w3.org/2000/svg">
<path fill-rule="evenodd" clip-rule="evenodd" d="M45.075 11.25C36.6056 11.25 28.8881 14.0475 24.3225 16.3331C23.91 16.5394 23.5256 16.7419 23.1675 16.9369C22.4588 17.3231 21.855 17.6831 21.375 18L26.5688 25.6463L29.0138 26.6194C38.5688 31.44 51.3825 31.44 60.9394 26.6194L63.7144 25.1794L68.6269 18C67.6092 17.3362 66.5508 16.7369 65.4581 16.2056C60.9169 13.9444 53.385 11.25 45.075 11.25ZM32.9944 19.905C31.1552 19.5608 29.3387 19.105 27.555 18.54C31.8319 16.6406 38.2069 14.625 45.0731 14.625C49.83 14.625 54.3281 15.5925 58.0481 16.8188C53.6888 17.4319 49.0369 18.4725 44.6044 19.7531C41.1169 20.7619 37.0406 20.6531 32.9944 19.905ZM62.9194 29.4L62.46 29.6325C51.9469 34.935 38.0044 34.935 27.4913 29.6325L27.0563 29.4112C11.265 46.7381 -0.791243 78.7444 45.075 78.7444C90.9375 78.7444 78.5869 46.14 62.9194 29.4ZM43.125 45C42.1304 45 41.1766 45.3951 40.4734 46.0984C39.7701 46.8016 39.375 47.7554 39.375 48.75C39.375 49.7446 39.7701 50.6984 40.4734 51.4016C41.1766 52.1049 42.1304 52.5 43.125 52.5V45ZM46.875 41.25V39.375H43.125V41.25C41.1359 41.25 39.2282 42.0402 37.8217 43.4467C36.4152 44.8532 35.625 46.7609 35.625 48.75C35.625 50.7391 36.4152 52.6468 37.8217 54.0533C39.2282 55.4598 41.1359 56.25 43.125 56.25V63.75C42.3495 63.7502 41.593 63.5099 40.9597 63.0623C40.3263 62.6147 39.8474 61.9818 39.5888 61.2506C39.4232 60.7817 39.0781 60.3977 38.6294 60.1833C38.1807 59.9688 37.6652 59.9413 37.1963 60.1069C36.7273 60.2725 36.3434 60.6176 36.1289 61.0662C35.9144 61.5149 35.8869 62.0304 36.0525 62.4994C36.5697 63.9618 37.5275 65.228 38.7941 66.1235C40.0607 67.0191 41.5738 67.5 43.125 67.5V69.375H46.875V67.5C48.8641 67.5 50.7718 66.7098 52.1783 65.3033C53.5848 63.8968 54.375 61.9891 54.375 60C54.375 58.0109 53.5848 56.1032 52.1783 54.6967C50.7718 53.2902 48.8641 52.5 46.875 52.5V45C48.5063 45 49.8956 46.0406 50.4131 47.4994C50.4899 47.738 50.6138 47.9589 50.7774 48.1488C50.941 48.3388 51.1411 48.494 51.3657 48.6053C51.5904 48.7166 51.835 48.7817 52.0853 48.7968C52.3355 48.8118 52.5863 48.7766 52.8227 48.6931C53.059 48.6095 53.2763 48.4795 53.4615 48.3105C53.6468 48.1416 53.7962 47.9372 53.9011 47.7095C54.006 47.4818 54.0641 47.2353 54.0721 46.9848C54.0801 46.7342 54.0377 46.4845 53.9475 46.2506C53.4303 44.7882 52.4725 43.522 51.2059 42.6265C49.9393 41.7309 48.4262 41.25 46.875 41.25ZM46.875 56.25V63.75C47.8696 63.75 48.8234 63.3549 49.5267 62.6517C50.2299 61.9484 50.625 60.9946 50.625 60C50.625 59.0054 50.2299 58.0516 49.5267 57.3484C48.8234 56.6451 47.8696 56.25 46.875 56.25Z" fill="black"/>
</svg>
